<svg width="244" height="203" viewBox="0 0 244 203" fill="none" xmlns="http://www.w3.org/2000/svg">
<path d="M78 45.6C77.6 39.2 76.0667 33.1333 73.4 27.4C70.7333 21.6667 66.8667 17 61.8 13.4C56.7333 9.79999 50.2667 7.99999 42.4 7.99999C34.1333 7.99999 27.8 10.3333 23.4 15C19 19.6667 16.8 25.1333 16.8 31.4C16.8 37 18.4 41.7333 21.6 45.6C24.8 49.3333 28.9333 52.6667 34 55.6C39.2 58.4 44.6667 61.1333 50.4 63.8C55.4667 66.0667 60.5333 68.5333 65.6 71.2C70.6667 73.7333 75.2667 76.6667 79.4 80C83.5333 83.3333 86.8 87.3333 89.2 92C91.7333 96.5333 93 102 93 108.4C93 115.733 91.1333 122.267 87.4 128C83.8 133.733 78.5333 138.267 71.6 141.6C64.6667 144.8 56.2 146.4 46.2 146.4C40.2 146.4 34 145.533 27.6 143.8C21.2 142.067 15.5333 139.533 10.6 136.2L11.6 144.8H1.2L0 102.2H7.8C8.46667 113.933 12.5333 122.867 20 129C27.4667 135 36.4667 138 47 138C52.2 138 57 137.067 61.4 135.2C65.8 133.2 69.2667 130.333 71.8 126.6C74.4667 122.867 75.8 118.333 75.8 113C75.8 107 74.2 102 71 98C67.8 94 63.6667 90.5333 58.6 87.6C53.5333 84.6667 48.1333 81.8667 42.4 79.2C37.3333 76.9333 32.3333 74.5333 27.4 72C22.4667 69.4667 17.9333 66.6 13.8 63.4C9.8 60.0667 6.53333 56.1333 4 51.6C1.6 47.0667 0.4 41.6 0.4 35.2C0.4 31.7333 1 28 2.2 24C3.4 20 5.46667 16.2 8.4 12.6C11.4667 8.86666 15.6 5.86666 20.8 3.6C26.1333 1.2 32.8667 0 41 0C46.0667 0 51.7333 0.733332 58 2.2C64.4 3.53333 70.3333 6.2 75.8 10.2L75 1.6H85.2V45.6H78Z" fill="black"/>
<path d="M152.8 202.2C146.933 188.867 141 175.6 135 162.4C129 149.067 123.133 135.6 117.4 122C115.533 117.733 113.667 113.467 111.8 109.2C110.067 104.8 108.333 100.4 106.6 96C105 91.6 103.333 87.2 101.6 82.8C101.6 84.2667 101.533 85.7333 101.4 87.2C101.4 88.6667 101.4 90.1333 101.4 91.6C101.267 96.4 101.067 102.2 100.8 109C100.667 115.667 100.467 122.867 100.2 130.6C99.9333 138.2 99.7333 145.867 99.6 153.6C99.4667 161.2 99.3333 168.4 99.2 175.2C99.0667 178.133 98.9333 181.067 98.8 184C98.8 186.933 98.6667 189.667 98.4 192.2C100.933 192.067 103.4 191.933 105.8 191.8C108.333 191.667 110.867 191.533 113.4 191.4V200.2H75.2V193.6C79.3333 193.467 82.3333 192.6 84.2 191C86.2 189.267 87.4667 187 88 184.2C88.5333 181.4 88.8667 178.4 89 175.2L92.8 84C92.9333 81.3333 93 78.6667 93 76C93.1333 73.3333 93.2667 70.7333 93.4 68.2C91 68.3333 88.6 68.4667 86.2 68.6C83.8 68.6 81.4 68.6667 79 68.8V60.2H109.6L144 139.6C145.733 143.6 147.4 147.6 149 151.6C150.733 155.6 152.467 159.6 154.2 163.6C156.067 167.6 157.867 171.667 159.6 175.8H160C161.467 172.2 163.2 167.933 165.2 163C167.2 157.933 168.867 153.6 170.2 150C176.067 135.333 182.133 120.667 188.4 106C194.8 91.2 201.067 75.9333 207.2 60.2H236.8V66.8C233.467 66.6667 230.733 67.3333 228.6 68.8C226.467 70.1333 224.933 72.4 224 75.6C223.067 78.8 222.733 83.1333 223 88.6L228.2 179.6C228.467 181.867 228.6 184.067 228.6 186.2C228.6 188.333 228.6 190.267 228.6 192C231 191.867 233.4 191.8 235.8 191.8C238.333 191.667 240.8 191.533 243.2 191.4V200.2H198.4V193.6C202.533 193.467 205.6 192.467 207.6 190.6C209.6 188.733 210.8 186.067 211.2 182.6C211.733 179.133 211.867 174.867 211.6 169.8L207.6 103.8C207.467 101.667 207.333 99.5333 207.2 97.4C207.067 95.2667 206.933 93.1333 206.8 91C206.667 88.8667 206.533 86.7333 206.4 84.6C206 85.5333 205.533 86.5333 205 87.6C204.6 88.6667 204.2 89.8 203.8 91L158.8 202.2H152.8Z" fill="black"/>
</svg>
