<svg width="244" height="203" viewBox="0 0 244 203" fill="none" xmlns="http://www.w3.org/2000/svg">
<path d="M78.6 46.4C78.2 40 76.6667 33.9333 74 28.2C71.3333 22.4667 67.4667 17.8 62.4 14.2C57.3333 10.6 50.8667 8.8 43 8.8C34.7333 8.8 28.4 11.1333 24 15.8C19.6 20.4667 17.4 25.9333 17.4 32.2C17.4 37.8 19 42.5333 22.2 46.4C25.4 50.1333 29.5333 53.4667 34.6 56.4C39.8 59.2 45.2667 61.9333 51 64.6C56.0667 66.8667 61.1333 69.3333 66.2 72C71.2667 74.5333 75.8667 77.4667 80 80.8C84.1333 84.1333 87.4 88.1333 89.8 92.8C92.3333 97.3333 93.6 102.8 93.6 109.2C93.6 116.533 91.7333 123.067 88 128.8C84.4 134.533 79.1333 139.067 72.2 142.4C65.2667 145.6 56.8 147.2 46.8 147.2C40.8 147.2 34.6 146.333 28.2 144.6C21.8 142.867 16.1333 140.333 11.2 137L12.2 145.6H1.8L0.6 103H8.4C9.06667 114.733 13.1333 123.667 20.6 129.8C28.0667 135.8 37.0667 138.8 47.6 138.8C52.8 138.8 57.6 137.867 62 136C66.4 134 69.8667 131.133 72.4 127.4C75.0667 123.667 76.4 119.133 76.4 113.8C76.4 107.8 74.8 102.8 71.6 98.8C68.4 94.8 64.2667 91.3333 59.2 88.4C54.1333 85.4667 48.7333 82.6667 43 80C37.9333 77.7333 32.9333 75.3333 28 72.8C23.0667 70.2667 18.5333 67.4 14.4 64.2C10.4 60.8667 7.13333 56.9333 4.6 52.4C2.2 47.8667 1 42.4 1 36C1 32.5333 1.6 28.8 2.8 24.8C4 20.8 6.06667 17 9 13.4C12.0667 9.66666 16.2 6.66667 21.4 4.4C26.7333 2 33.4667 0.800003 41.6 0.800003C46.6667 0.800003 52.3333 1.53333 58.6 3C65 4.33333 70.9333 7 76.4 11L75.6 2.40001H85.8V46.4H78.6Z" fill="white"/>
<path d="M153.4 203C147.533 189.667 141.6 176.4 135.6 163.2C129.6 149.867 123.733 136.4 118 122.8C116.133 118.533 114.267 114.267 112.4 110C110.667 105.6 108.933 101.2 107.2 96.8C105.6 92.4 103.933 88 102.2 83.6C102.2 85.0667 102.133 86.5333 102 88C102 89.4667 102 90.9333 102 92.4C101.867 97.2 101.667 103 101.4 109.8C101.267 116.467 101.067 123.667 100.8 131.4C100.533 139 100.333 146.667 100.2 154.4C100.067 162 99.9333 169.2 99.8 176C99.6667 178.933 99.5333 181.867 99.4 184.8C99.4 187.733 99.2667 190.467 99 193C101.533 192.867 104 192.733 106.4 192.6C108.933 192.467 111.467 192.333 114 192.2V201H75.8V194.4C79.9333 194.267 82.9333 193.4 84.8 191.8C86.8 190.067 88.0667 187.8 88.6 185C89.1333 182.2 89.4667 179.2 89.6 176L93.4 84.8C93.5333 82.1333 93.6 79.4667 93.6 76.8C93.7333 74.1333 93.8667 71.5333 94 69C91.6 69.1333 89.2 69.2667 86.8 69.4C84.4 69.4 82 69.4667 79.6 69.6V61H110.2L144.6 140.4C146.333 144.4 148 148.4 149.6 152.4C151.333 156.4 153.067 160.4 154.8 164.4C156.667 168.4 158.467 172.467 160.2 176.6H160.6C162.067 173 163.8 168.733 165.8 163.8C167.8 158.733 169.467 154.4 170.8 150.8C176.667 136.133 182.733 121.467 189 106.8C195.4 92 201.667 76.7333 207.8 61H237.4V67.6C234.067 67.4667 231.333 68.1333 229.2 69.6C227.067 70.9333 225.533 73.2 224.6 76.4C223.667 79.6 223.333 83.9333 223.6 89.4L228.8 180.4C229.067 182.667 229.2 184.867 229.2 187C229.2 189.133 229.2 191.067 229.2 192.8C231.6 192.667 234 192.6 236.4 192.6C238.933 192.467 241.4 192.333 243.8 192.2V201H199V194.4C203.133 194.267 206.2 193.267 208.2 191.4C210.2 189.533 211.4 186.867 211.8 183.4C212.333 179.933 212.467 175.667 212.2 170.6L208.2 104.6C208.067 102.467 207.933 100.333 207.8 98.2C207.667 96.0667 207.533 93.9333 207.4 91.8C207.267 89.6667 207.133 87.5333 207 85.4C206.6 86.3333 206.133 87.3333 205.6 88.4C205.2 89.4667 204.8 90.6 204.4 91.8L159.4 203H153.4Z" fill="white"/>
</svg>
